<svg width="156" height="46" viewBox="0 0 156 46" fill="none" xmlns="http://www.w3.org/2000/svg">
<g filter="url(#filter0_dd_3358_1870)">
<path d="M2 22.3183C2 11.2726 10.9543 2.3183 22 2.3183H134C145.046 2.3183 154 11.2726 154 22.3183V22.3183C154 33.364 145.046 42.3183 134 42.3183H22C10.9543 42.3183 2 33.364 2 22.3183V22.3183Z" fill="white"/>
<g clip-path="url(#clip0_3358_1870)">
<path d="M35.5905 22.9542C35.6004 22.1877 35.804 21.436 36.1824 20.7693C36.5608 20.1025 37.1017 19.5423 37.7548 19.1408C37.34 18.5483 36.7926 18.0606 36.1563 17.7166C35.52 17.3726 34.8122 17.1817 34.0892 17.1591C32.5469 16.9972 31.0517 18.082 30.2658 18.082C29.4647 18.082 28.2546 17.1752 26.9516 17.202C26.1088 17.2292 25.2874 17.4743 24.5674 17.9134C23.8475 18.3525 23.2535 18.9705 22.8435 19.7074C21.0672 22.7827 22.3922 27.3024 24.0937 29.7883C24.945 31.0055 25.9399 32.3653 27.2418 32.317C28.5157 32.2642 28.9915 31.5047 30.5292 31.5047C32.0527 31.5047 32.4991 32.317 33.8274 32.2864C35.1943 32.2642 36.0556 31.0637 36.8771 29.8349C37.4887 28.9676 37.9594 28.009 38.2716 26.9946C37.4775 26.6587 36.7997 26.0965 36.3229 25.378C35.8461 24.6595 35.5914 23.8165 35.5905 22.9542V22.9542Z" fill="black"/>
<path d="M33.0816 15.5242C33.827 14.6295 34.1942 13.4794 34.1053 12.3183C32.9665 12.4379 31.9147 12.9821 31.1593 13.8426C30.7899 14.2629 30.5071 14.7519 30.3268 15.2816C30.1466 15.8114 30.0725 16.3714 30.1088 16.9298C30.6784 16.9357 31.2419 16.8122 31.7568 16.5687C32.2717 16.3253 32.7247 15.9681 33.0816 15.5242Z" fill="black"/>
</g>
<path d="M55.0795 28.3183H52.8295L56.9261 16.6819H59.5284L63.6307 28.3183H61.3807L58.2727 19.0683H58.1818L55.0795 28.3183ZM55.1534 23.7558H61.2898V25.449H55.1534V23.7558ZM65.0724 31.591V19.591H67.0952V21.0342H67.2145C67.3205 20.8221 67.4702 20.5967 67.6634 20.3581C67.8565 20.1156 68.1179 19.9092 68.4474 19.7388C68.777 19.5645 69.1974 19.4774 69.7088 19.4774C70.383 19.4774 70.991 19.6497 71.5327 19.9944C72.0781 20.3353 72.5099 20.841 72.8281 21.5115C73.1501 22.1781 73.3111 22.9963 73.3111 23.966C73.3111 24.9244 73.1539 25.7388 72.8395 26.4092C72.5251 27.0797 72.0971 27.591 71.5554 27.9433C71.0137 28.2956 70.4001 28.4717 69.7145 28.4717C69.2145 28.4717 68.7997 28.3884 68.4702 28.2217C68.1406 28.055 67.8755 27.8543 67.6747 27.6194C67.4777 27.3808 67.3243 27.1554 67.2145 26.9433H67.1293V31.591H65.0724ZM67.0895 23.9547C67.0895 24.5191 67.169 25.0134 67.3281 25.4376C67.491 25.8619 67.724 26.1933 68.027 26.4319C68.3338 26.6668 68.705 26.7842 69.1406 26.7842C69.5952 26.7842 69.9759 26.663 70.2827 26.4206C70.5895 26.1744 70.8205 25.8391 70.9759 25.4149C71.1349 24.9869 71.2145 24.5001 71.2145 23.9547C71.2145 23.413 71.1368 22.9319 70.9815 22.5115C70.8262 22.091 70.5952 21.7615 70.2884 21.5228C69.9815 21.2842 69.599 21.1649 69.1406 21.1649C68.7012 21.1649 68.3281 21.2804 68.0213 21.5115C67.7145 21.7425 67.4815 22.0664 67.3224 22.4831C67.1671 22.8997 67.0895 23.3903 67.0895 23.9547ZM75.0724 31.591V19.591H77.0952V21.0342H77.2145C77.3205 20.8221 77.4702 20.5967 77.6634 20.3581C77.8565 20.1156 78.1179 19.9092 78.4474 19.7388C78.777 19.5645 79.1974 19.4774 79.7088 19.4774C80.383 19.4774 80.991 19.6497 81.5327 19.9944C82.0781 20.3353 82.5099 20.841 82.8281 21.5115C83.1501 22.1781 83.3111 22.9963 83.3111 23.966C83.3111 24.9244 83.1539 25.7388 82.8395 26.4092C82.5251 27.0797 82.0971 27.591 81.5554 27.9433C81.0137 28.2956 80.4001 28.4717 79.7145 28.4717C79.2145 28.4717 78.7997 28.3884 78.4702 28.2217C78.1406 28.055 77.8755 27.8543 77.6747 27.6194C77.4777 27.3808 77.3243 27.1554 77.2145 26.9433H77.1293V31.591H75.0724ZM77.0895 23.9547C77.0895 24.5191 77.169 25.0134 77.3281 25.4376C77.491 25.8619 77.724 26.1933 78.027 26.4319C78.3338 26.6668 78.705 26.7842 79.1406 26.7842C79.5952 26.7842 79.9759 26.663 80.2827 26.4206C80.5895 26.1744 80.8205 25.8391 80.9759 25.4149C81.1349 24.9869 81.2145 24.5001 81.2145 23.9547C81.2145 23.413 81.1368 22.9319 80.9815 22.5115C80.8262 22.091 80.5952 21.7615 80.2884 21.5228C79.9815 21.2842 79.599 21.1649 79.1406 21.1649C78.7012 21.1649 78.3281 21.2804 78.0213 21.5115C77.7145 21.7425 77.4815 22.0664 77.3224 22.4831C77.1671 22.8997 77.0895 23.3903 77.0895 23.9547ZM95.456 19.8808C95.4029 19.3846 95.1795 18.9982 94.7855 18.7217C94.3954 18.4452 93.8878 18.3069 93.2628 18.3069C92.8234 18.3069 92.4465 18.3732 92.1321 18.5058C91.8177 18.6384 91.5772 18.8183 91.4105 19.0456C91.2438 19.2728 91.1586 19.5323 91.1548 19.824C91.1548 20.0664 91.2098 20.2766 91.3196 20.4547C91.4332 20.6327 91.5866 20.7842 91.7798 20.9092C91.973 21.0304 92.187 21.1327 92.4219 21.216C92.6567 21.2994 92.8935 21.3694 93.1321 21.4263L94.223 21.699C94.6624 21.8013 95.0848 21.9395 95.4901 22.1138C95.8991 22.288 96.2647 22.5077 96.5866 22.7728C96.9124 23.038 97.17 23.3581 97.3594 23.7331C97.5488 24.1081 97.6435 24.5475 97.6435 25.0513C97.6435 25.7331 97.4692 26.3334 97.1207 26.8524C96.7723 27.3675 96.2685 27.7709 95.6094 28.0626C94.9541 28.3505 94.1605 28.4944 93.2287 28.4944C92.3234 28.4944 91.5374 28.3543 90.8707 28.074C90.2079 27.7937 89.6889 27.3846 89.3139 26.8467C88.9427 26.3088 88.742 25.6535 88.7116 24.8808H90.7855C90.8158 25.2861 90.9408 25.6232 91.1605 25.8922C91.3802 26.1611 91.6662 26.3619 92.0185 26.4944C92.3745 26.627 92.7723 26.6933 93.2116 26.6933C93.67 26.6933 94.0715 26.6251 94.4162 26.4888C94.7647 26.3486 95.0374 26.1554 95.2344 25.9092C95.4313 25.6592 95.5317 25.3675 95.5355 25.0342C95.5317 24.7312 95.4427 24.4812 95.2685 24.2842C95.0942 24.0834 94.8499 23.9168 94.5355 23.7842C94.2249 23.6478 93.8613 23.5266 93.4446 23.4206L92.1207 23.0797C91.1624 22.8334 90.4048 22.4603 89.848 21.9603C89.295 21.4566 89.0185 20.788 89.0185 19.9547C89.0185 19.2691 89.2041 18.6687 89.5753 18.1535C89.9503 17.6384 90.4598 17.2388 91.1037 16.9547C91.7476 16.6668 92.4768 16.5228 93.2912 16.5228C94.117 16.5228 94.8404 16.6668 95.4616 16.9547C96.0866 17.2388 96.5772 17.6346 96.9332 18.1422C97.2893 18.6459 97.473 19.2255 97.4844 19.8808H95.456ZM103.79 19.591V21.1819H98.7727V19.591H103.79ZM100.011 17.5001H102.068V25.6933C102.068 25.9698 102.11 26.1819 102.193 26.3297C102.28 26.4736 102.394 26.5721 102.534 26.6251C102.674 26.6781 102.83 26.7047 103 26.7047C103.129 26.7047 103.246 26.6952 103.352 26.6763C103.462 26.6573 103.545 26.6403 103.602 26.6251L103.949 28.2331C103.839 28.2709 103.682 28.3126 103.477 28.3581C103.277 28.4035 103.03 28.43 102.739 28.4376C102.223 28.4528 101.759 28.3751 101.347 28.2047C100.934 28.0304 100.606 27.7615 100.364 27.3978C100.125 27.0342 100.008 26.5797 100.011 26.0342V17.5001ZM109.223 28.4888C108.371 28.4888 107.632 28.3013 107.007 27.9263C106.382 27.5513 105.897 27.0266 105.553 26.3524C105.212 25.6781 105.041 24.8903 105.041 23.9888C105.041 23.0872 105.212 22.2975 105.553 21.6194C105.897 20.9414 106.382 20.4149 107.007 20.0399C107.632 19.6649 108.371 19.4774 109.223 19.4774C110.075 19.4774 110.814 19.6649 111.439 20.0399C112.064 20.4149 112.547 20.9414 112.888 21.6194C113.232 22.2975 113.405 23.0872 113.405 23.9888C113.405 24.8903 113.232 25.6781 112.888 26.3524C112.547 27.0266 112.064 27.5513 111.439 27.9263C110.814 28.3013 110.075 28.4888 109.223 28.4888ZM109.234 26.841C109.696 26.841 110.083 26.7141 110.393 26.4603C110.704 26.2028 110.935 25.8581 111.087 25.4263C111.242 24.9944 111.32 24.5134 111.32 23.9831C111.32 23.449 111.242 22.966 111.087 22.5342C110.935 22.0986 110.704 21.752 110.393 21.4944C110.083 21.2369 109.696 21.1081 109.234 21.1081C108.761 21.1081 108.367 21.2369 108.053 21.4944C107.742 21.752 107.509 22.0986 107.354 22.5342C107.202 22.966 107.126 23.449 107.126 23.9831C107.126 24.5134 107.202 24.9944 107.354 25.4263C107.509 25.8581 107.742 26.2028 108.053 26.4603C108.367 26.7141 108.761 26.841 109.234 26.841ZM115.151 28.3183V19.591H117.145V21.0456H117.236C117.395 20.5418 117.668 20.1535 118.054 19.8808C118.444 19.6043 118.889 19.466 119.389 19.466C119.503 19.466 119.63 19.4717 119.77 19.4831C119.914 19.4906 120.033 19.5039 120.128 19.5228V21.4149C120.041 21.3846 119.902 21.3581 119.713 21.3353C119.527 21.3088 119.348 21.2956 119.173 21.2956C118.798 21.2956 118.461 21.377 118.162 21.5399C117.866 21.699 117.634 21.9206 117.463 22.2047C117.293 22.4888 117.207 22.8164 117.207 23.1876V28.3183H115.151ZM124.999 28.4888C124.124 28.4888 123.368 28.3069 122.732 27.9433C122.099 27.5759 121.612 27.0569 121.271 26.3865C120.93 25.7122 120.76 24.9187 120.76 24.0058C120.76 23.1081 120.93 22.3202 121.271 21.6422C121.616 20.9603 122.097 20.43 122.714 20.0513C123.332 19.6687 124.057 19.4774 124.891 19.4774C125.429 19.4774 125.936 19.5645 126.413 19.7388C126.894 19.9092 127.319 20.1744 127.686 20.5342C128.057 20.8941 128.349 21.3524 128.561 21.9092C128.773 22.4622 128.879 23.1213 128.879 23.8865V24.5172H121.726V23.1308H126.908C126.904 22.7369 126.819 22.3865 126.652 22.0797C126.485 21.7691 126.252 21.5247 125.953 21.3467C125.658 21.1687 125.313 21.0797 124.919 21.0797C124.499 21.0797 124.129 21.1819 123.811 21.3865C123.493 21.5872 123.245 21.8524 123.067 22.1819C122.893 22.5077 122.804 22.8656 122.8 23.2558V24.466C122.8 24.9736 122.893 25.4092 123.078 25.7728C123.264 26.1327 123.523 26.4092 123.857 26.6024C124.19 26.7918 124.58 26.8865 125.027 26.8865C125.326 26.8865 125.597 26.8448 125.839 26.7615C126.082 26.6744 126.292 26.5475 126.47 26.3808C126.648 26.2141 126.783 26.0077 126.874 25.7615L128.794 25.9774C128.673 26.485 128.442 26.9281 128.101 27.3069C127.764 27.6819 127.332 27.9736 126.805 28.1819C126.279 28.3865 125.677 28.4888 124.999 28.4888Z" fill="black"/>
</g>
<defs>
<filter id="filter0_dd_3358_1870" x="0" y="0.318298" width="156" height="45" filterUnits="userSpaceOnUse" color-interpolation-filters="sRGB">
<feFlood flood-opacity="0" result="BackgroundImageFix"/>
<feColorMatrix in="SourceAlpha" type="matrix" values="0 0 0 0 0 0 0 0 0 0 0 0 0 0 0 0 0 0 127 0" result="hardAlpha"/>
<feOffset dy="1"/>
<feGaussianBlur stdDeviation="1"/>
<feComposite in2="hardAlpha" operator="out"/>
<feColorMatrix type="matrix" values="0 0 0 0 0 0 0 0 0 0 0 0 0 0 0 0 0 0 0.1 0"/>
<feBlend mode="normal" in2="BackgroundImageFix" result="effect1_dropShadow_3358_1870"/>
<feColorMatrix in="SourceAlpha" type="matrix" values="0 0 0 0 0 0 0 0 0 0 0 0 0 0 0 0 0 0 127 0" result="hardAlpha"/>
<feOffset/>
<feGaussianBlur stdDeviation="1"/>
<feComposite in2="hardAlpha" operator="out"/>
<feColorMatrix type="matrix" values="0 0 0 0 0 0 0 0 0 0 0 0 0 0 0 0 0 0 0.15 0"/>
<feBlend mode="normal" in2="effect1_dropShadow_3358_1870" result="effect2_dropShadow_3358_1870"/>
<feBlend mode="normal" in="SourceGraphic" in2="effect2_dropShadow_3358_1870" result="shape"/>
</filter>
<clipPath id="clip0_3358_1870">
<rect width="20" height="20" fill="white" transform="translate(20 12.3183)"/>
</clipPath>
</defs>
</svg>
