<svg width="116" height="116" viewBox="0 0 116 116" xmlns="http://www.w3.org/2000/svg">
 <path d="m74.2 0.0828a6.97 6.97 0 0 0-2.09 0.578l-58 33.6c-1.35 0.78-1.38 2.25-0.082 3.27l25 19.6a3.46 3.46 0 0 0 3.4 0.309l63.9-36.9c1.6-0.926 1.4-2.56-0.451-3.63l-27.4-15.9a6.97 6.97 0 0 0-4.19-0.838zm33.3 25.2c-0.333-0.0091-0.699 0.0579-1.08 0.213l-29.4 11.9a3.44 3.44 0 0 0-1.94 2.8v73.9c0 1.86 1.49 2.49 3.34 1.42l27.4-15.9a6.99 6.99 0 0 0 3.37-5.31v-67.1c0-1.17-0.707-1.89-1.71-1.92zm-98.9 14.5c-1.04-0.0112-1.78 0.949-1.78 2.55v31.7a6.99 6.99 0 0 0 2.91 5.58l58 33.5c1.35 0.78 2.64 0.0755 2.87-1.56l4.42-31.4a3.47 3.47 0 0 0-1.43-3.1l-63.9-36.9c-0.4-0.232-0.783-0.344-1.13-0.348z" fill="#00cdcc"/>
</svg>
