<svg width="157" height="46" viewBox="0 0 157 46" fill="none" xmlns="http://www.w3.org/2000/svg">
<g filter="url(#filter0_dd_3358_1872)">
<path d="M2 22.3183C2 11.2726 10.9543 2.3183 22 2.3183H135C146.046 2.3183 155 11.2726 155 22.3183V22.3183C155 33.364 146.046 42.3183 135 42.3183H22C10.9543 42.3183 2 33.364 2 22.3183V22.3183Z" fill="white"/>
<g clip-path="url(#clip0_3358_1872)">
<path d="M21.4176 31.9514L21.3599 31.8961C21.1336 31.6567 21 31.2849 21 30.8035V30.9168V13.7198C21 13.7183 21 13.7171 21 13.7159C21 13.7173 21 13.7186 21 13.7201V13.8337C21 13.3124 21.1557 12.9198 21.4167 12.6843L31.0508 22.3182L21.4176 31.9514ZM21 13.7149C21 13.6721 21.0012 13.6305 21.0033 13.5895C21.0012 13.6302 21 13.6721 21 13.7149ZM21.0033 13.5876C21.0033 13.5871 21.0033 13.5865 21.0036 13.5858C21.0033 13.5865 21.0033 13.5871 21.0033 13.5876ZM21.0036 13.5822C21.0036 13.5819 21.0036 13.5816 21.0036 13.5813C21.0036 13.5816 21.0036 13.5819 21.0036 13.5822Z" fill="url(#paint0_linear_3358_1872)"/>
<path d="M34.2617 25.6445L34.3349 25.6029L38.1395 23.4411C38.5023 23.2349 38.744 22.9849 38.8646 22.7204C38.7443 22.9849 38.5025 23.2352 38.1395 23.4414L34.3349 25.6032L34.2617 25.6445V25.6445ZM34.2626 25.5306L31.0508 22.3182L34.2623 19.1064L38.1395 21.3091C38.6319 21.5889 38.9083 21.9495 38.9545 22.3179C38.9545 22.3182 38.9545 22.3188 38.9545 22.3194C38.9083 22.6869 38.6319 23.0478 38.1395 23.3275L34.2626 25.5306" fill="url(#paint1_linear_3358_1872)"/>
<path d="M22.1044 32.3183C21.8353 32.3183 21.6004 32.2308 21.4173 32.0656L21.4176 32.0653C21.6007 32.2305 21.8359 32.3183 22.105 32.3183C22.1283 32.3183 22.152 32.3177 22.1761 32.3165C22.1517 32.3177 22.1277 32.3183 22.1044 32.3183V32.3183ZM22.1047 32.2044C21.8356 32.2047 21.6007 32.1169 21.4176 31.9517V31.9514L31.0508 22.3182L34.2626 25.5305L22.9758 31.9435C22.6635 32.1206 22.3677 32.2044 22.1047 32.2044V32.2044ZM21.4149 32.0635C21.3979 32.048 21.3812 32.0316 21.3647 32.0146L21.4149 32.0635Z" fill="url(#paint2_linear_3358_1872)"/>
<path d="M31.0508 22.3182L21.4167 12.6843C21.5999 12.5194 21.8344 12.4319 22.1032 12.4319C22.3669 12.4319 22.663 12.516 22.9759 12.6934L34.2623 19.1064L31.0508 22.3182V22.3182ZM34.335 19.0338L22.9759 12.5799C22.663 12.4024 22.3669 12.3183 22.1032 12.3183C22.102 12.3183 22.1011 12.3183 22.0999 12.3183C22.1014 12.3183 22.1026 12.3183 22.1044 12.3183C22.3675 12.3183 22.6633 12.4021 22.9759 12.5796L34.335 19.0338V19.0338Z" fill="url(#paint3_linear_3358_1872)"/>
<path d="M22.1761 32.3165C22.4206 32.3025 22.6912 32.2183 22.9758 32.0571L34.2617 25.6444L22.9758 32.0571C22.6915 32.2186 22.4206 32.3025 22.1761 32.3165V32.3165ZM21.4173 32.0655L21.4149 32.0634C21.4158 32.0641 21.4167 32.0649 21.4173 32.0655ZM21.3648 32.0145L21.3599 32.0097V32.0094C21.3617 32.0112 21.3632 32.013 21.3648 32.0145Z" fill="black"/>
<path d="M34.2617 25.6445L34.335 25.6029L34.2617 25.6445Z" fill="url(#paint4_linear_3358_1872)"/>
<path d="M22.105 32.3183C21.8359 32.3183 21.6008 32.2305 21.4176 32.0653L21.4173 32.0656C21.4167 32.065 21.4158 32.0641 21.4149 32.0635L21.3648 32.0146C21.3632 32.013 21.3617 32.0112 21.3599 32.0094L21.4176 31.9517C21.6008 32.1169 21.8356 32.2047 22.1047 32.2044C22.3677 32.2044 22.6636 32.1206 22.9758 31.9435L34.2626 25.5305L34.3349 25.6029L34.2617 25.6445L22.9758 32.0571C22.6912 32.2184 22.4206 32.3025 22.1761 32.3165C22.1521 32.3177 22.1283 32.3183 22.105 32.3183" fill="url(#paint5_linear_3358_1872)"/>
<path d="M21.3599 32.0098C21.1336 31.7703 21 31.3986 21 30.9172V30.9169C21 31.3986 21.1336 31.77 21.3599 32.0095V32.0098" fill="black"/>
<path d="M21.3599 32.0095C21.1336 31.77 21 31.3986 21 30.9169V30.8036C21 31.285 21.1336 31.6567 21.3599 31.8962L21.4176 31.9515L21.3599 32.0095" fill="url(#paint6_linear_3358_1872)"/>
<path d="M21.3599 32.0095L21.4176 31.9515V31.9517L21.3599 32.0095" fill="url(#paint7_linear_3358_1872)"/>
<path d="M38.8647 22.7203C38.9245 22.5891 38.9546 22.4542 38.9546 22.3193C38.9546 22.3191 38.9546 22.3188 38.9546 22.3188C38.9546 22.4539 38.9245 22.5888 38.8647 22.7203Z" fill="black"/>
<path d="M34.335 25.6028L34.2627 25.5305L38.1396 23.3275C38.632 23.0478 38.9084 22.6869 38.9546 22.3193C38.9546 22.4543 38.9245 22.5891 38.8647 22.7203C38.7441 22.9849 38.5024 23.2349 38.1396 23.4411L34.335 25.6028Z" fill="url(#paint8_linear_3358_1872)"/>
<path d="M38.9546 22.3182V22.3179C38.9543 21.9111 38.6825 21.5044 38.1397 21.1958L34.335 19.0341H34.3347L34.335 19.0338L38.1397 21.1955C38.6831 21.5041 38.9553 21.9114 38.9546 22.3182Z" fill="#404040"/>
<path d="M38.9547 22.3179C38.9085 21.9495 38.6321 21.5889 38.1397 21.3091L34.2625 19.1064L34.3348 19.0341H34.3351L38.1397 21.1958C38.6825 21.5044 38.9544 21.9111 38.9547 22.3179Z" fill="url(#paint9_linear_3358_1872)"/>
<path d="M21 13.7158C21 13.7155 21 13.7152 21 13.7149C21 13.7152 21 13.7155 21 13.7158ZM21.0033 13.5895C21.0033 13.5888 21.0033 13.5882 21.0033 13.5876C21.0033 13.5882 21.0033 13.5888 21.0033 13.5895ZM21.0036 13.5858C21.0036 13.5846 21.0036 13.5834 21.0036 13.5822C21.0036 13.5834 21.0036 13.5846 21.0036 13.5858ZM21.0036 13.5812C21.0486 12.7824 21.483 12.321 22.0974 12.3183C21.831 12.3198 21.599 12.4073 21.4173 12.571V12.5707L21.4152 12.5729C21.396 12.5901 21.3778 12.6084 21.3599 12.6272C21.1557 12.8431 21.027 13.1666 21.0036 13.5812Z" fill="#404040"/>
<path d="M21 13.8337V13.7201C21 13.7186 21 13.7173 21 13.7159C21 13.7155 21 13.7152 21 13.7149C21 13.6721 21.0012 13.6302 21.0033 13.5895C21.0033 13.5889 21.0033 13.5883 21.0033 13.5876C21.0033 13.5871 21.0033 13.5865 21.0036 13.5858C21.0036 13.5846 21.0036 13.5834 21.0036 13.5822C21.0036 13.5819 21.0036 13.5816 21.0036 13.5813C21.027 13.1667 21.1557 12.8432 21.3599 12.6272L21.4167 12.6843C21.1557 12.9198 21 13.3124 21 13.8337V13.8337ZM21.4152 12.5729L21.4173 12.5707C21.4167 12.5716 21.4158 12.5723 21.4152 12.5729Z" fill="url(#paint10_linear_3358_1872)"/>
<path d="M34.2623 19.1064L22.9758 12.6934C22.6629 12.5161 22.3668 12.4319 22.1032 12.4319C21.8343 12.4319 21.5998 12.5194 21.4167 12.6843L21.3599 12.6273C21.3778 12.6084 21.396 12.5902 21.4151 12.5729C21.4158 12.5723 21.4167 12.5717 21.4173 12.571C21.599 12.4074 21.831 12.3199 22.0974 12.3183C22.098 12.3183 22.0989 12.3183 22.0998 12.3183C22.1011 12.3183 22.1019 12.3183 22.1032 12.3183C22.3668 12.3183 22.6629 12.4025 22.9758 12.5799L34.3349 19.0338L34.3346 19.0341L34.2623 19.1064Z" fill="url(#paint11_linear_3358_1872)"/>
</g>
<path d="M53.593 28.3183V16.6819H57.9567C58.8506 16.6819 59.6006 16.8486 60.2067 17.1819C60.8165 17.5153 61.2768 17.9736 61.5874 18.5569C61.9018 19.1365 62.0589 19.7956 62.0589 20.5342C62.0589 21.2804 61.9018 21.9433 61.5874 22.5228C61.273 23.1024 60.8089 23.5588 60.1953 23.8922C59.5817 24.2217 58.826 24.3865 57.9283 24.3865H55.0362V22.6535H57.6442C58.1669 22.6535 58.5949 22.5626 58.9283 22.3808C59.2616 22.199 59.5078 21.949 59.6669 21.6308C59.8298 21.3126 59.9112 20.9471 59.9112 20.5342C59.9112 20.1213 59.8298 19.7577 59.6669 19.4433C59.5078 19.1289 59.2597 18.8846 58.9226 18.7103C58.5893 18.5323 58.1593 18.4433 57.6328 18.4433H55.701V28.3183H53.593ZM65.8558 16.6819V28.3183H63.799V16.6819H65.8558ZM70.4822 28.4944C69.9292 28.4944 69.4311 28.3959 68.9879 28.199C68.5485 27.9982 68.2 27.7028 67.9425 27.3126C67.6887 26.9225 67.5618 26.4414 67.5618 25.8694C67.5618 25.377 67.6527 24.9698 67.8345 24.6478C68.0163 24.3259 68.2644 24.0683 68.5788 23.8751C68.8932 23.6819 69.2474 23.5361 69.6413 23.4376C70.0391 23.3353 70.45 23.2615 70.8743 23.216C71.3857 23.163 71.8004 23.1156 72.1186 23.074C72.4368 23.0285 72.6679 22.9603 72.8118 22.8694C72.9595 22.7747 73.0334 22.6289 73.0334 22.4319V22.3978C73.0334 21.9698 72.9065 21.6384 72.6527 21.4035C72.3989 21.1687 72.0334 21.0513 71.5561 21.0513C71.0523 21.0513 70.6527 21.1611 70.3572 21.3808C70.0656 21.6005 69.8686 21.86 69.7663 22.1592L67.8459 21.8865C67.9974 21.3562 68.2474 20.913 68.5959 20.5569C68.9444 20.1971 69.3705 19.9281 69.8743 19.7501C70.3781 19.5683 70.9349 19.4774 71.5447 19.4774C71.9652 19.4774 72.3838 19.5266 72.8004 19.6251C73.2171 19.7236 73.5978 19.8865 73.9425 20.1138C74.2872 20.3372 74.5637 20.6422 74.772 21.0285C74.9841 21.4149 75.0902 21.8978 75.0902 22.4774V28.3183H73.1129V27.1194H73.0447C72.9197 27.3619 72.7436 27.5891 72.5163 27.8013C72.2929 28.0096 72.0107 28.1781 71.6697 28.3069C71.3326 28.4319 70.9368 28.4944 70.4822 28.4944ZM71.0163 26.9831C71.4292 26.9831 71.7872 26.9016 72.0902 26.7388C72.3932 26.5721 72.6262 26.3524 72.7891 26.0797C72.9557 25.8069 73.0391 25.5096 73.0391 25.1876V24.1592C72.9747 24.2122 72.8648 24.2615 72.7095 24.3069C72.558 24.3524 72.3875 24.3922 72.1982 24.4263C72.0088 24.4603 71.8213 24.4906 71.6357 24.5172C71.45 24.5437 71.2891 24.5664 71.1527 24.5853C70.8459 24.627 70.5713 24.6952 70.3288 24.7899C70.0864 24.8846 69.8951 25.0172 69.755 25.1876C69.6148 25.3543 69.5447 25.5702 69.5447 25.8353C69.5447 26.2141 69.683 26.5001 69.9595 26.6933C70.236 26.8865 70.5883 26.9831 71.0163 26.9831ZM78.1243 31.591C77.844 31.591 77.5845 31.5683 77.3459 31.5228C77.111 31.4812 76.9235 31.4319 76.7834 31.3751L77.2607 29.7728C77.5599 29.86 77.8269 29.9016 78.0618 29.8978C78.2966 29.8941 78.5031 29.8202 78.6811 29.6763C78.8629 29.5361 79.0163 29.3013 79.1413 28.9717L79.3175 28.5001L76.1527 19.591H78.3345L80.3459 26.1819H80.4368L82.4538 19.591H84.6413L81.147 29.3751C80.9841 29.8372 80.7682 30.2331 80.4993 30.5626C80.2304 30.8959 79.9008 31.1497 79.5107 31.324C79.1243 31.502 78.6622 31.591 78.1243 31.591ZM96.4482 19.8808C96.3951 19.3846 96.1716 18.9982 95.7777 18.7217C95.3875 18.4452 94.88 18.3069 94.255 18.3069C93.8156 18.3069 93.4387 18.3732 93.1243 18.5058C92.8099 18.6384 92.5694 18.8183 92.4027 19.0456C92.236 19.2728 92.1508 19.5323 92.147 19.824C92.147 20.0664 92.2019 20.2766 92.3118 20.4547C92.4254 20.6327 92.5788 20.7842 92.772 20.9092C92.9652 21.0304 93.1792 21.1327 93.4141 21.216C93.6489 21.2994 93.8857 21.3694 94.1243 21.4263L95.2152 21.699C95.6546 21.8013 96.0769 21.9395 96.4822 22.1138C96.8913 22.288 97.2569 22.5077 97.5788 22.7728C97.9046 23.038 98.1622 23.3581 98.3516 23.7331C98.541 24.1081 98.6357 24.5475 98.6357 25.0513C98.6357 25.7331 98.4614 26.3334 98.1129 26.8524C97.7644 27.3675 97.2607 27.7709 96.6016 28.0626C95.9463 28.3505 95.1527 28.4944 94.2209 28.4944C93.3156 28.4944 92.5296 28.3543 91.8629 28.074C91.2 27.7937 90.6811 27.3846 90.3061 26.8467C89.9349 26.3088 89.7341 25.6535 89.7038 24.8808H91.7777C91.808 25.2861 91.933 25.6232 92.1527 25.8922C92.3724 26.1611 92.6584 26.3619 93.0107 26.4944C93.3667 26.627 93.7644 26.6933 94.2038 26.6933C94.6622 26.6933 95.0637 26.6251 95.4084 26.4888C95.7569 26.3486 96.0296 26.1554 96.2266 25.9092C96.4235 25.6592 96.5239 25.3675 96.5277 25.0342C96.5239 24.7312 96.4349 24.4812 96.2607 24.2842C96.0864 24.0834 95.8421 23.9168 95.5277 23.7842C95.2171 23.6478 94.8535 23.5266 94.4368 23.4206L93.1129 23.0797C92.1546 22.8334 91.397 22.4603 90.8402 21.9603C90.2872 21.4566 90.0107 20.788 90.0107 19.9547C90.0107 19.2691 90.1963 18.6687 90.5675 18.1535C90.9425 17.6384 91.4519 17.2388 92.0959 16.9547C92.7398 16.6668 93.469 16.5228 94.2834 16.5228C95.1091 16.5228 95.8326 16.6668 96.4538 16.9547C97.0788 17.2388 97.5694 17.6346 97.9254 18.1422C98.2815 18.6459 98.4652 19.2255 98.4766 19.8808H96.4482ZM104.782 19.591V21.1819H99.7649V19.591H104.782ZM101.004 17.5001H103.06V25.6933C103.06 25.9698 103.102 26.1819 103.185 26.3297C103.272 26.4736 103.386 26.5721 103.526 26.6251C103.666 26.6781 103.822 26.7047 103.992 26.7047C104.121 26.7047 104.238 26.6952 104.344 26.6763C104.454 26.6573 104.538 26.6403 104.594 26.6251L104.941 28.2331C104.831 28.2709 104.674 28.3126 104.469 28.3581C104.269 28.4035 104.022 28.43 103.731 28.4376C103.216 28.4528 102.752 28.3751 102.339 28.2047C101.926 28.0304 101.598 27.7615 101.356 27.3978C101.117 27.0342 101 26.5797 101.004 26.0342V17.5001ZM110.215 28.4888C109.363 28.4888 108.624 28.3013 107.999 27.9263C107.374 27.5513 106.889 27.0266 106.545 26.3524C106.204 25.6781 106.033 24.8903 106.033 23.9888C106.033 23.0872 106.204 22.2975 106.545 21.6194C106.889 20.9414 107.374 20.4149 107.999 20.0399C108.624 19.6649 109.363 19.4774 110.215 19.4774C111.067 19.4774 111.806 19.6649 112.431 20.0399C113.056 20.4149 113.539 20.9414 113.88 21.6194C114.225 22.2975 114.397 23.0872 114.397 23.9888C114.397 24.8903 114.225 25.6781 113.88 26.3524C113.539 27.0266 113.056 27.5513 112.431 27.9263C111.806 28.3013 111.067 28.4888 110.215 28.4888ZM110.227 26.841C110.689 26.841 111.075 26.7141 111.386 26.4603C111.696 26.2028 111.927 25.8581 112.079 25.4263C112.234 24.9944 112.312 24.5134 112.312 23.9831C112.312 23.449 112.234 22.966 112.079 22.5342C111.927 22.0986 111.696 21.752 111.386 21.4944C111.075 21.2369 110.689 21.1081 110.227 21.1081C109.753 21.1081 109.359 21.2369 109.045 21.4944C108.734 21.752 108.501 22.0986 108.346 22.5342C108.194 22.966 108.119 23.449 108.119 23.9831C108.119 24.5134 108.194 24.9944 108.346 25.4263C108.501 25.8581 108.734 26.2028 109.045 26.4603C109.359 26.7141 109.753 26.841 110.227 26.841ZM116.143 28.3183V19.591H118.137V21.0456H118.228C118.387 20.5418 118.66 20.1535 119.046 19.8808C119.436 19.6043 119.881 19.466 120.381 19.466C120.495 19.466 120.622 19.4717 120.762 19.4831C120.906 19.4906 121.025 19.5039 121.12 19.5228V21.4149C121.033 21.3846 120.895 21.3581 120.705 21.3353C120.52 21.3088 120.34 21.2956 120.165 21.2956C119.79 21.2956 119.453 21.377 119.154 21.5399C118.859 21.699 118.626 21.9206 118.455 22.2047C118.285 22.4888 118.2 22.8164 118.2 23.1876V28.3183H116.143ZM125.991 28.4888C125.116 28.4888 124.36 28.3069 123.724 27.9433C123.091 27.5759 122.604 27.0569 122.263 26.3865C121.923 25.7122 121.752 24.9187 121.752 24.0058C121.752 23.1081 121.923 22.3202 122.263 21.6422C122.608 20.9603 123.089 20.43 123.707 20.0513C124.324 19.6687 125.049 19.4774 125.883 19.4774C126.421 19.4774 126.928 19.5645 127.406 19.7388C127.887 19.9092 128.311 20.1744 128.678 20.5342C129.049 20.8941 129.341 21.3524 129.553 21.9092C129.765 22.4622 129.871 23.1213 129.871 23.8865V24.5172H122.718V23.1308H127.9C127.896 22.7369 127.811 22.3865 127.644 22.0797C127.478 21.7691 127.245 21.5247 126.945 21.3467C126.65 21.1687 126.305 21.0797 125.911 21.0797C125.491 21.0797 125.121 21.1819 124.803 21.3865C124.485 21.5872 124.237 21.8524 124.059 22.1819C123.885 22.5077 123.796 22.8656 123.792 23.2558V24.466C123.792 24.9736 123.885 25.4092 124.07 25.7728C124.256 26.1327 124.515 26.4092 124.849 26.6024C125.182 26.7918 125.572 26.8865 126.019 26.8865C126.318 26.8865 126.589 26.8448 126.832 26.7615C127.074 26.6744 127.284 26.5475 127.462 26.3808C127.64 26.2141 127.775 26.0077 127.866 25.7615L129.786 25.9774C129.665 26.485 129.434 26.9281 129.093 27.3069C128.756 27.6819 128.324 27.9736 127.798 28.1819C127.271 28.3865 126.669 28.4888 125.991 28.4888Z" fill="black"/>
</g>
<defs>
<filter id="filter0_dd_3358_1872" x="0" y="0.318298" width="157" height="45" filterUnits="userSpaceOnUse" color-interpolation-filters="sRGB">
<feFlood flood-opacity="0" result="BackgroundImageFix"/>
<feColorMatrix in="SourceAlpha" type="matrix" values="0 0 0 0 0 0 0 0 0 0 0 0 0 0 0 0 0 0 127 0" result="hardAlpha"/>
<feOffset dy="1"/>
<feGaussianBlur stdDeviation="1"/>
<feComposite in2="hardAlpha" operator="out"/>
<feColorMatrix type="matrix" values="0 0 0 0 0 0 0 0 0 0 0 0 0 0 0 0 0 0 0.1 0"/>
<feBlend mode="normal" in2="BackgroundImageFix" result="effect1_dropShadow_3358_1872"/>
<feColorMatrix in="SourceAlpha" type="matrix" values="0 0 0 0 0 0 0 0 0 0 0 0 0 0 0 0 0 0 127 0" result="hardAlpha"/>
<feOffset/>
<feGaussianBlur stdDeviation="1"/>
<feComposite in2="hardAlpha" operator="out"/>
<feColorMatrix type="matrix" values="0 0 0 0 0 0 0 0 0 0 0 0 0 0 0 0 0 0 0.15 0"/>
<feBlend mode="normal" in2="effect1_dropShadow_3358_1872" result="effect2_dropShadow_3358_1872"/>
<feBlend mode="normal" in="SourceGraphic" in2="effect2_dropShadow_3358_1872" result="shape"/>
</filter>
<linearGradient id="paint0_linear_3358_1872" x1="30.1965" y1="13.5384" x2="17.1468" y2="26.5882" gradientUnits="userSpaceOnUse">
<stop stop-color="#00A0FF"/>
<stop offset="0.00657445" stop-color="#00A1FF"/>
<stop offset="0.2601" stop-color="#00BEFF"/>
<stop offset="0.5122" stop-color="#00D2FF"/>
<stop offset="0.7604" stop-color="#00DFFF"/>
<stop offset="1" stop-color="#00E3FF"/>
</linearGradient>
<linearGradient id="paint1_linear_3358_1872" x1="39.5544" y1="22.3187" x2="20.7393" y2="22.3187" gradientUnits="userSpaceOnUse">
<stop stop-color="#FFE000"/>
<stop offset="0.4087" stop-color="#FFBD00"/>
<stop offset="0.7754" stop-color="#FFA500"/>
<stop offset="1" stop-color="#FF9C00"/>
</linearGradient>
<linearGradient id="paint2_linear_3358_1872" x1="32.5504" y1="24.103" x2="14.854" y2="41.7994" gradientUnits="userSpaceOnUse">
<stop stop-color="#FF3A44"/>
<stop offset="1" stop-color="#C31162"/>
</linearGradient>
<linearGradient id="paint3_linear_3358_1872" x1="18.9197" y1="6.90291" x2="26.8219" y2="14.8051" gradientUnits="userSpaceOnUse">
<stop stop-color="#32A071"/>
<stop offset="0.0685" stop-color="#2DA771"/>
<stop offset="0.4762" stop-color="#15CF74"/>
<stop offset="0.8009" stop-color="#06E775"/>
<stop offset="1" stop-color="#00F076"/>
</linearGradient>
<linearGradient id="paint4_linear_3358_1872" x1="39.5544" y1="22.3186" x2="20.7395" y2="22.3186" gradientUnits="userSpaceOnUse">
<stop stop-color="#CCB300"/>
<stop offset="0.4087" stop-color="#CC9700"/>
<stop offset="0.7754" stop-color="#CC8400"/>
<stop offset="1" stop-color="#CC7D00"/>
</linearGradient>
<linearGradient id="paint5_linear_3358_1872" x1="32.5504" y1="24.103" x2="14.854" y2="41.7994" gradientUnits="userSpaceOnUse">
<stop stop-color="#CC2E36"/>
<stop offset="1" stop-color="#9C0E4E"/>
</linearGradient>
<linearGradient id="paint6_linear_3358_1872" x1="30.1966" y1="13.5384" x2="17.1468" y2="26.5882" gradientUnits="userSpaceOnUse">
<stop stop-color="#008DE0"/>
<stop offset="0.00657445" stop-color="#008DE0"/>
<stop offset="0.2601" stop-color="#00A7E0"/>
<stop offset="0.5122" stop-color="#00B8E0"/>
<stop offset="0.7604" stop-color="#00C4E0"/>
<stop offset="1" stop-color="#00C7E0"/>
</linearGradient>
<linearGradient id="paint7_linear_3358_1872" x1="32.5506" y1="24.103" x2="14.8541" y2="41.7997" gradientUnits="userSpaceOnUse">
<stop stop-color="#E0333C"/>
<stop offset="1" stop-color="#AB0F56"/>
</linearGradient>
<linearGradient id="paint8_linear_3358_1872" x1="39.5545" y1="22.3186" x2="20.7394" y2="22.3186" gradientUnits="userSpaceOnUse">
<stop stop-color="#E0C500"/>
<stop offset="0.4087" stop-color="#E0A600"/>
<stop offset="0.7754" stop-color="#E09100"/>
<stop offset="1" stop-color="#E08900"/>
</linearGradient>
<linearGradient id="paint9_linear_3358_1872" x1="39.5546" y1="22.3186" x2="20.7394" y2="22.3186" gradientUnits="userSpaceOnUse">
<stop stop-color="#FFE840"/>
<stop offset="0.4087" stop-color="#FFCE40"/>
<stop offset="0.7754" stop-color="#FFBC40"/>
<stop offset="1" stop-color="#FFB540"/>
</linearGradient>
<linearGradient id="paint10_linear_3358_1872" x1="30.1965" y1="13.5384" x2="17.1468" y2="26.5882" gradientUnits="userSpaceOnUse">
<stop stop-color="#40B8FF"/>
<stop offset="0.00657445" stop-color="#40B9FF"/>
<stop offset="0.2601" stop-color="#40CEFF"/>
<stop offset="0.5122" stop-color="#40DDFF"/>
<stop offset="0.7604" stop-color="#40E7FF"/>
<stop offset="1" stop-color="#40EAFF"/>
</linearGradient>
<linearGradient id="paint11_linear_3358_1872" x1="18.9197" y1="6.90292" x2="26.8218" y2="14.8051" gradientUnits="userSpaceOnUse">
<stop stop-color="#65B895"/>
<stop offset="0.0685" stop-color="#62BD95"/>
<stop offset="0.4762" stop-color="#50DB97"/>
<stop offset="0.8009" stop-color="#44ED98"/>
<stop offset="1" stop-color="#40F498"/>
</linearGradient>
<clipPath id="clip0_3358_1872">
<rect width="20" height="20" fill="white" transform="translate(20 12.3183)"/>
</clipPath>
</defs>
</svg>
